<svg id="Ebene_1" xmlns="http://www.w3.org/2000/svg" viewBox="0 0 100 70">
    <style>.st0{fill:#f01414}.st1{fill:#fff}</style>
    <title>db_em_rgb_100px</title>
    <path class="st0" d="M90 0H10C4.5 0 0 4.5 0 10v50c0 5.5 4.5 10 10 10h80c5.5 0 10-4.5 10-10.1V10c0-5.5-4.5-10-10-10z" />
    <path class="st1" d="m 92.7,59.9 c 0.1,1.5 -1.1,2.8 -2.7,2.9 H 10 C 8.5,62.8 7.3,61.5 7.3,60 V 10 C 7.2,8.5 8.4,7.2 9.9,7.1 H 90 c 1.5,0 2.7,1.3 2.7,2.8 z" />
    <path class="st0" d="m 38.650001,34 c 4.7,-1.4 7.899999,-5.7 8,-10.7 0,-1 -0.200001,-11.2 -13.100001,-11.2 h -19.1 v 45.8 h 16.2 c 4.3,0 17.7,0 17.7,-12.9 0,-3.1 -1.4,-9.2 -9.699999,-11 z M 25.35,19.3 h 3.5 c 4.900001,0 6.900001,1.7 6.900001,5.5 0,3 -2.200001,5.5 -6,5.5 h -4.3 v -11 z m 4.5,31.3 h -4.5 V 38.8 h 4.800001 c 5.7,0 7.1,3.3 7.1,5.9 0,5.9 -5.6,5.9 -7.400001,5.9 z" />
    <path class="st0" d="M 69.95,57.9 H 53.15 V 12.1 h 16.8 c 11.9,0 18.4,7.4 18.4,22.7 0,13.2 -4.5,23 -18.4,23.1 z m 7.3,-22.2 c 0,-9.2 -1,-16.4 -10.9,-16.4 h -2.2 v 31.2 h 3.9 c 5.8,0 9.2,-4.7 9.2,-14.8 z" />
</svg>
